Coordinates
version=1
nRows=16
nColumns=36
inDegrees=yes

Units are S.I. units (second, meters, Newtons, ...)
If the header above contains a line with 'inDegrees', this indicates whether rotational values are in degrees (yes) or radians (no).

endheader
time	pelvis_tilt	pelvis_list	pelvis_rotation	pelvis_tx	pelvis_ty	pelvis_tz	hip_flexion_r	hip_adduction_r	hip_rotation_r	knee_angle_r	knee_angle_r_beta	ankle_angle_r	subtalar_angle_r	mtp_angle_r	hip_flexion_l	hip_adduction_l	hip_rotation_l	knee_angle_l	knee_angle_l_beta	ankle_angle_l	subtalar_angle_l	mtp_angle_l	lumbar_extension	lumbar_bending	lumbar_rotation	arm_flex_r	arm_add_r	arm_rot_r	elbow_flex_r	pro_sup_r	arm_flex_l	arm_add_l	arm_rot_l	elbow_flex_l	pro_sup_l
     45.35000000	      6.71448782	      6.37449227	    183.93304772	      0.27038485	      0.93924900	      0.71585346	      2.29075542	      7.10641230	      7.08222080	     25.03624421	      0.43696489	     17.37025426	     -0.57000599	     -7.49999987	     31.32555210	    -11.79227119	    -16.09382684	     14.24682596	      0.24865402	    -29.25697057	    -24.34573441	     -7.49999987	    -14.00615336	      4.35242230	     11.35276164	     12.66891787	    -19.76743546	      9.49221047	     32.08632266	     82.35975002	      9.27205326	     -8.42809259	     -9.76380184	     15.87204646	     87.39149663
     45.36666670	      6.41523717	      5.32334656	    183.56419937	      0.26805572	      0.93409839	      0.71966886	      0.53950654	      5.79185103	      8.93734631	     25.83111165	      0.45083795	     17.68757053	     -1.74529512	     -7.49999987	     31.01766295	    -10.54872813	    -14.04340995	     16.93058605	      0.29549447	    -28.10462731	    -26.22083758	     -7.49999987	    -13.64589316	      3.43746580	     11.33560162	     12.05072028	    -19.34021007	      9.50744876	     31.45997773	     82.33620012	      8.31544978	     -8.72145363	     -9.94928783	     15.57441844	     87.58308024
     45.38333330	      6.23678976	      4.53526241	    182.95332421	      0.26625416	      0.93115897	      0.72197122	     -0.76663080	      4.83560945	     11.09107530	     26.50240564	      0.46255424	     17.04336126	     -4.14332029	     -7.49999987	     31.04632838	     -9.54490662	    -11.28750653	     19.95243397	      0.34823567	    -28.66068334	    -28.61150869	     -7.49999987	    -13.07768758	      2.65758144	     10.92716704	     12.39231614	    -18.30584106	      9.73898240	     28.69755827	     83.08154005	      7.48690710	     -9.12004020	    -11.28519725	     14.75833320	     90.99789016
     45.40000000	      6.05335006	      3.82995542	    182.13249050	      0.26393850	      0.92917200	      0.72328588	     -1.38572575	      4.04857049	     12.95027454	     28.08347981	      0.49014919	     16.48982339	     -6.47060759	     -7.49999987	     31.25692819	     -8.73411900	     -8.85853946	     23.22242467	      0.40530777	    -28.06550962	    -29.40705930	     -7.49999987	    -12.86509478	      1.69275097	     11.07659240	     11.98631747	    -17.74436618	      9.69609574	     27.88960174	     83.05416527	      7.15746982	     -9.55569331	    -11.41368767	     14.54918264	     91.41290187
     45.41666670	      5.90579594	      3.27763993	    181.42143672	      0.26072499	      0.92802504	      0.72516589	     -1.32826600	      3.57442496	     14.22541271	     30.92220034	      0.53969421	     16.05978164	     -8.47351751	     -7.49999987	     31.61262989	     -7.98228495	     -6.71968340	     26.48960441	      0.46233081	    -26.67815357	    -29.68746813	     -7.49999987	    -12.66820985	      0.76530397	     11.14288827	     11.89402513	    -17.10411992	      9.52166047	     26.48863428	     82.93357741	      7.25247933	    -10.07716502	    -11.25006767	     14.39928468	     91.97238060
     45.43333330	      5.62287210	      3.06483706	    180.82255623	      0.25721977	      0.92689566	      0.72875879	     -0.94947870	      3.49495682	     14.88900961	     34.73951003	      0.60631883	     15.38595498	     -9.51306670	     -7.49999987	     31.77233620	     -7.49631451	     -4.83224622	     29.40229637	      0.51316688	    -25.82484174	    -29.21754816	     -7.49999987	    -12.59548776	      0.24840844	     11.41304470	     11.76551714	    -16.71893632	      9.38459360	     25.18202234	     82.79360531	      7.55685149	    -10.46661099	    -10.83988407	     14.42969302	     92.51504139
     45.45000000	      4.83829944	      3.04479443	    180.65358627	      0.25629523	      0.92592404	      0.73522114	     -0.65056454	      3.45940932	     14.58038850	     39.16549118	      0.68356677	     14.10835356	     -9.48829795	     -7.49999987	     31.36710233	     -7.01264209	     -3.28955401	     31.52144247	      0.55015296	    -25.22553068	    -29.11487071	     -7.49999987	    -13.42586786	      0.03868405	     11.35810515	     11.57557876	    -16.65969307	      9.36469030	     24.84248374	     82.76915072	      7.97113008	    -10.59142084	    -10.74789623	     14.57217472	     92.58777879
     45.46666670	      5.21395828	      3.54438398	    180.85096518	      0.25989687	      0.92397437	      0.74559740	      1.86785906	      3.84432030	     13.73579296	     45.01270777	      0.78561996	     12.94514953	     -9.27866804	     -7.49999987	     32.80082865	     -6.95857284	     -2.29149854	     33.94722098	      0.59249078	    -20.85939549	    -27.17944205	     -7.49999987	    -13.07995458	      0.58385909	     11.92057587	     10.79790986	    -16.83875813	      7.94494172	     23.92715803	     82.02488647	      8.94020926	    -10.52502192	     -7.64910764	     14.61634671	     94.35847589
     45.48333330	      4.49561581	      3.89786042	    180.97074099	      0.26463017	      0.92518062	      0.76026411	      3.93743092	      3.51030175	     12.54671654	     51.48705660	      0.89861866	     10.43256987	     -9.12449981	     -7.49999987	     32.38343749	     -6.37249537	     -1.58454938	     35.33639328	      0.61673641	    -19.34290546	    -26.93919511	     -7.49999987	    -14.63206324	      1.36587982	     11.59745014	     10.96710578	    -17.54199495	      7.78573673	     23.99914640	     81.89359956	      9.58192997	     -9.88217761	     -7.51918606	     15.22291307	     94.19862964
     45.50000000	      5.32449111	      4.18299509	    180.60482409	      0.26443852	      0.92532074	      0.77354001	      8.26618243	      2.88964944	     11.75323709	     58.85065987	      1.02713778	      7.88655602	     -9.56348997	     -7.49999987	     33.34036539	     -5.81351826	     -1.82021856	     37.03302174	      0.64634816	    -15.83427852	    -25.23366303	     -7.49999987	    -14.03250494	      2.12550813	     11.95541053	     10.38165557	    -18.14199372	      7.21354719	     23.84958774	     79.16425397	     10.11640346	     -8.96602670	     -6.10302969	     15.43339787	     90.86342253
     45.51666670	      5.08426330	      4.06733282	    180.25758986	      0.26126950	      0.92799229	      0.78145598	     11.30595744	      1.76795007	     10.95891435	     65.53691131	      1.14383488	      5.51608167	     -9.97952528	     -7.49999987	     32.21320498	     -4.84391456	     -2.26317681	     37.36553647	      0.65215164	    -13.55254707	    -24.28824048	     -7.49999987	    -14.92383960	      2.49573212	     12.65336144	      9.23004195	    -19.00836920	      4.58455290	     25.50054683	     80.16454312	     11.54467572	     -8.04185704	     -2.00340597	     15.41609258	     92.05270673
     45.53333330	      5.01713517	      4.31363345	    179.77494068	      0.25984527	      0.93062660	      0.78338701	     14.48469432	      1.37676829	     10.19511959	     71.22890408	      1.24317890	      4.02133647	    -10.03961371	     -7.49999987	     30.85337430	     -4.64278221	     -2.68273182	     36.75442732	      0.64148577	    -12.24168281	    -23.50696163	     -7.49999987	    -15.75695307	      3.19339886	     12.39094858	      9.63333186	    -19.59380339	      4.39831635	     25.75312779	     80.15851806	     12.19567407	     -6.94577123	     -1.70813548	     16.49986368	     91.93053667
     45.55000000	      5.39673271	      4.80022635	    179.48297902	      0.26030527	      0.93248816	      0.78337941	     18.04284585	      1.50124771	      9.12922469	     75.79274858	      1.32283301	      2.90785545	    -10.43188338	     -7.49999987	     29.95609110	     -4.89050734	     -2.57683843	     36.05517252	      0.62928147	    -10.82703015	    -22.44662456	     -7.49999987	    -16.17471415	      3.99247297	     11.95801764	     10.01508638	    -20.05379410	      4.13872736	     26.34611698	     80.16726075	     12.88808376	     -6.07925512	     -0.99697263	     17.93639993	     91.86740948
     45.56666670	      5.53675314	      5.11829638	    179.43055857	      0.26118148	      0.93582697	      0.78437764	     21.04345664	      1.51635350	      7.93419564	     79.08569553	      1.38030578	      1.66284185	    -11.35154528	     -7.49999987	     28.60458052	     -4.97684207	     -2.05358107	     35.32924123	      0.61661158	     -9.91991786	    -22.15499309	     -7.49999987	    -16.71605291	      4.57665605	     11.44477191	     10.49980199	    -20.32075369	      4.00671843	     26.79089433	     80.10669557	     13.86698166	     -5.37885695	     -0.63173529	     18.80831915	     91.75428297
     45.58333330	      6.08084989	      5.06816347	    179.37530787	      0.26314297	      0.94203349	      0.78609307	     24.13550382	      1.28727716	      6.95568770	     80.98649262	      1.41348095	     -0.98871977	    -14.10207346	     -7.49999987	     27.64475342	     -4.78482911	     -1.77892809	     34.43272552	      0.60096443	     -8.29609377	    -21.69919545	     -7.49999987	    -16.48077736	      4.71516370	     10.79659598	     10.64007210	    -20.30428084	      3.78165359	     27.51716054	     80.06046977	     14.40239474	     -5.13382830	      0.17094384	     19.81627532	     91.62086150
     45.60000000	      6.34018737	      5.06230163	    179.30408463	      0.26611251	      0.94941150	      0.78761699	     26.56663656	      1.17138631	      5.94073846	     81.38939591	      1.42051293	     -3.85831696	    -16.37690022	     -7.49999987	     26.10889876	     -4.63548825	     -1.85337122	     32.49873668	      0.56720996	     -7.18645457	    -21.04225690	     -7.49999987	    -16.37527061	      4.81719077	     10.38515377	     10.55944655	    -20.22683114	      3.67301193	     27.80648967	     80.03108294	     14.88113191	     -4.90182657	      0.65162289	     20.27208024	     91.48000092
